<svg width="42" height="42" viewBox="0 0 42 42" fill="none" xmlns="http://www.w3.org/2000/svg">
<circle cx="21" cy="21" r="21" fill="#4A76A8"/>
<path d="M31.8472 15.9324C32.0078 15.3953 31.8472 15 31.0747 15H28.5182C27.8672 15 27.5677 15.3395 27.4071 15.7176C27.4071 15.7176 26.105 18.8586 24.2648 20.8953C23.6701 21.484 23.3967 21.673 23.0712 21.673C22.9106 21.673 22.6632 21.484 22.6632 20.9469V15.9324C22.6632 15.2879 22.4809 15 21.9427 15H17.9236C17.5156 15 17.2726 15.3008 17.2726 15.5801C17.2726 16.1902 18.1927 16.332 18.2882 18.0508V21.7805C18.2882 22.5969 18.1406 22.7473 17.8151 22.7473C16.947 22.7473 14.8377 19.5934 13.5877 15.984C13.3359 15.2836 13.0885 15 12.4332 15H9.87674C9.14757 15 9 15.3395 9 15.7176C9 16.3879 9.86806 19.718 13.0408 24.118C15.1545 27.1215 18.1319 28.75 20.8403 28.75C22.4679 28.75 22.6675 28.3891 22.6675 27.766C22.6675 24.8957 22.52 24.625 23.3359 24.625C23.7135 24.625 24.3646 24.8141 25.8837 26.2621C27.6198 27.9809 27.9062 28.75 28.8785 28.75H31.4349C32.1641 28.75 32.533 28.3891 32.3203 27.6758C31.8342 26.1762 28.5486 23.091 28.401 22.8848C28.0234 22.4035 28.1319 22.1887 28.401 21.759C28.4054 21.7547 31.526 17.4062 31.8472 15.9324Z" fill="white"/>
</svg>
