<svg width="42" height="42" viewBox="0 0 42 42" fill="none" xmlns="http://www.w3.org/2000/svg">
<circle cx="21" cy="21" r="21" fill="#A84A51"/>
<path d="M32.2084 15.699C31.9358 14.6366 31.1326 13.7999 30.1128 13.516C28.2642 13 20.8519 13 20.8519 13C20.8519 13 13.4395 13 11.591 13.516C10.5711 13.8 9.76793 14.6366 9.49531 15.699C9 17.6247 9 21.6424 9 21.6424C9 21.6424 9 25.6602 9.49531 27.5858C9.76793 28.6482 10.5711 29.4501 11.591 29.734C13.4395 30.25 20.8519 30.25 20.8519 30.25C20.8519 30.25 28.2642 30.25 30.1128 29.734C31.1326 29.4501 31.9358 28.6482 32.2084 27.5858C32.7037 25.6602 32.7037 21.6424 32.7037 21.6424C32.7037 21.6424 32.7037 17.6247 32.2084 15.699ZM18.4276 25.2902V17.9946L24.6229 21.6425L18.4276 25.2902Z" fill="white"/>
</svg>
