<svg width="172" height="38" viewBox="0 0 172 38" fill="none" xmlns="http://www.w3.org/2000/svg">
<path fill-rule="evenodd" clip-rule="evenodd" d="M19.0435 1.49997H152.956C162.622 1.49997 170.456 9.335 170.456 19C170.456 28.665 162.622 36.5 152.956 36.5H19.0435C9.37847 36.5 1.54353 28.665 1.54353 19C1.54353 9.335 9.37847 1.49997 19.0435 1.49997Z" fill="#4A76A8"/>
<path d="M63.7042 18.3722C64.3948 18.5578 64.9205 18.8773 65.2812 19.3308C65.642 19.774 65.8224 20.3306 65.8224 21.0006C65.8224 21.9489 65.4719 22.6858 64.771 23.2115C64.0701 23.7372 63.0549 24 61.7253 24H56.5922V13.1774H61.4315C62.6477 13.1774 63.596 13.4196 64.2763 13.9041C64.9566 14.3885 65.2967 15.0739 65.2967 15.9604C65.2967 16.5272 65.1576 17.0168 64.8793 17.4291C64.6113 17.8414 64.2196 18.1558 63.7042 18.3722ZM58.5712 17.8002H61.2614C61.9108 17.8002 62.4055 17.6714 62.7457 17.4137C63.0858 17.156 63.2559 16.7746 63.2559 16.2696C63.2559 15.7645 63.0858 15.3831 62.7457 15.1255C62.4055 14.8575 61.9108 14.7235 61.2614 14.7235H58.5712V17.8002ZM61.6634 22.4539C63.0858 22.4539 63.797 21.9179 63.797 20.846C63.797 19.7946 63.0858 19.269 61.6634 19.269H58.5712V22.4539H61.6634ZM72.1009 19.439H70.091V24H68.112V13.1774H70.091V17.7074H72.1628L75.2704 13.1774H77.404L73.7089 18.4186L77.5432 24H75.2704L72.1009 19.439ZM82.265 24.1082C81.4301 24.1082 80.6777 23.9278 80.0077 23.5671C79.3377 23.2063 78.8121 22.7064 78.4307 22.0674C78.0596 21.418 77.8741 20.6862 77.8741 19.8719C77.8741 19.0577 78.0596 18.331 78.4307 17.692C78.8121 17.0529 79.3377 16.553 80.0077 16.1923C80.6777 15.8315 81.4301 15.6511 82.265 15.6511C83.1102 15.6511 83.8678 15.8315 84.5378 16.1923C85.2077 16.553 85.7282 17.0529 86.0993 17.692C86.4807 18.331 86.6713 19.0577 86.6713 19.8719C86.6713 20.6862 86.4807 21.418 86.0993 22.0674C85.7282 22.7064 85.2077 23.2063 84.5378 23.5671C83.8678 23.9278 83.1102 24.1082 82.265 24.1082ZM82.265 22.4539C82.9762 22.4539 83.5637 22.2168 84.0275 21.7427C84.4914 21.2686 84.7233 20.645 84.7233 19.8719C84.7233 19.0989 84.4914 18.4753 84.0275 18.0012C83.5637 17.5271 82.9762 17.29 82.265 17.29C81.5538 17.29 80.9663 17.5271 80.5025 18.0012C80.0489 18.4753 79.8222 19.0989 79.8222 19.8719C79.8222 20.645 80.0489 21.2686 80.5025 21.7427C80.9663 22.2168 81.5538 22.4539 82.265 22.4539ZM88.5805 15.7439H90.5131V19.0989H94.6721V15.7439H96.6047V24H94.6721V20.7378H90.5131V24H88.5805V15.7439ZM105.735 17.3828H102.844V24H100.911V17.3828H98.0043V15.7439H105.735V17.3828ZM110.213 15.6511C111.43 15.6511 112.357 15.9449 112.996 16.5324C113.646 17.1096 113.97 17.9857 113.97 19.1607V24H112.146V22.995C111.909 23.3558 111.569 23.6341 111.125 23.8299C110.693 24.0155 110.167 24.1082 109.548 24.1082C108.93 24.1082 108.389 24.0052 107.925 23.799C107.461 23.5826 107.101 23.2888 106.843 22.9177C106.595 22.5364 106.472 22.1086 106.472 21.6345C106.472 20.8924 106.745 20.2997 107.291 19.8565C107.848 19.403 108.719 19.1762 109.904 19.1762H112.038V19.0525C112.038 18.4753 111.862 18.0321 111.512 17.7229C111.172 17.4137 110.662 17.2591 109.981 17.2591C109.518 17.2591 109.059 17.3312 108.605 17.4755C108.162 17.6198 107.786 17.8208 107.477 18.0785L106.719 16.6716C107.152 16.3417 107.673 16.0892 108.281 15.914C108.889 15.7387 109.533 15.6511 110.213 15.6511ZM109.95 22.7013C110.435 22.7013 110.863 22.5931 111.234 22.3766C111.615 22.1499 111.883 21.8303 112.038 21.418V20.4595H110.043C108.93 20.4595 108.373 20.8254 108.373 21.5572C108.373 21.9076 108.513 22.1859 108.791 22.3921C109.069 22.5982 109.456 22.7013 109.95 22.7013ZM119.794 20.6914H118.294V24H116.362V15.7439H118.294V19.0834H119.84L122.283 15.7439H124.355L121.356 19.7173L124.556 24H122.283L119.794 20.6914ZM132.353 17.3828H129.462V24H127.53V17.3828H124.623V15.7439H132.353V17.3828ZM141.123 19.9183C141.123 20.0523 141.113 20.243 141.092 20.4904H134.614C134.728 21.0985 135.021 21.583 135.496 21.9437C135.98 22.2942 136.578 22.4694 137.289 22.4694C138.196 22.4694 138.943 22.1705 139.531 21.5726L140.567 22.7631C140.196 23.2063 139.727 23.5413 139.16 23.7681C138.593 23.9948 137.954 24.1082 137.243 24.1082C136.336 24.1082 135.537 23.9278 134.846 23.5671C134.156 23.2063 133.62 22.7064 133.238 22.0674C132.867 21.418 132.682 20.6862 132.682 19.8719C132.682 19.068 132.862 18.3465 133.223 17.7074C133.594 17.0581 134.104 16.553 134.753 16.1923C135.403 15.8315 136.135 15.6511 136.949 15.6511C137.753 15.6511 138.469 15.8315 139.098 16.1923C139.737 16.5427 140.232 17.0426 140.582 17.692C140.943 18.331 141.123 19.0731 141.123 19.9183ZM136.949 17.1972C136.33 17.1972 135.805 17.3828 135.372 17.7538C134.949 18.1146 134.692 18.599 134.599 19.2071H139.283C139.201 18.6093 138.948 18.1249 138.526 17.7538C138.103 17.3828 137.578 17.1972 136.949 17.1972Z" fill="white"/>
<path d="M39.6545 13.0574C39.8151 12.5203 39.6545 12.125 38.8819 12.125H36.3255C35.6744 12.125 35.375 12.4645 35.2144 12.8426C35.2144 12.8426 33.9123 15.9836 32.072 18.0203C31.4774 18.609 31.204 18.798 30.8784 18.798C30.7178 18.798 30.4704 18.609 30.4704 18.0719V13.0574C30.4704 12.4129 30.2882 12.125 29.75 12.125H25.7309C25.3229 12.125 25.0798 12.4258 25.0798 12.7051C25.0798 13.3152 26 13.457 26.0954 15.1758V18.9055C26.0954 19.7219 25.9479 19.8723 25.6224 19.8723C24.7543 19.8723 22.6449 16.7184 21.3949 13.109C21.1432 12.4086 20.8958 12.125 20.2404 12.125H17.684C16.9548 12.125 16.8073 12.4645 16.8073 12.8426C16.8073 13.5129 17.6753 16.843 20.848 21.243C22.9618 24.2465 25.9392 25.875 28.6475 25.875C30.2751 25.875 30.4748 25.5141 30.4748 24.891C30.4748 22.0207 30.3272 21.75 31.1432 21.75C31.5208 21.75 32.1718 21.9391 33.6909 23.3871C35.427 25.1059 35.7135 25.875 36.6857 25.875H39.2421C39.9713 25.875 40.3402 25.5141 40.1276 24.8008C39.6415 23.3012 36.3559 20.216 36.2083 20.0098C35.8307 19.5285 35.9392 19.3137 36.2083 18.884C36.2126 18.8797 39.3333 14.5312 39.6545 13.0574Z" fill="white"/>
</svg>
