<svg width="172" height="38" viewBox="0 0 172 38" fill="none" xmlns="http://www.w3.org/2000/svg">
<path fill-rule="evenodd" clip-rule="evenodd" d="M19.0313 1.49997H152.969C162.634 1.49997 170.469 9.335 170.469 19C170.469 28.665 162.634 36.5 152.969 36.5H19.0313C9.36626 36.5 1.53132 28.665 1.53132 19C1.53132 9.335 9.36626 1.49997 19.0313 1.49997Z" fill="#4A76A8"/>
<path fill-rule="evenodd" clip-rule="evenodd" d="M19.0313 1.49997H152.969C162.634 1.49997 170.469 9.335 170.469 19C170.469 28.665 162.634 36.5 152.969 36.5H19.0313C9.36626 36.5 1.53132 28.665 1.53132 19C1.53132 9.335 9.36626 1.49997 19.0313 1.49997Z" fill="#A84A51"/>
<path d="M66.8791 21.1812V25H64.8692V21.2121L60.6175 14.1774H62.7665L65.936 19.4496L69.1364 14.1774H71.1154L66.8791 21.1812ZM75.0357 25.1082C74.2008 25.1082 73.4484 24.9278 72.7784 24.5671C72.1084 24.2063 71.5828 23.7064 71.2014 23.0674C70.8303 22.418 70.6448 21.6862 70.6448 20.8719C70.6448 20.0577 70.8303 19.331 71.2014 18.692C71.5828 18.0529 72.1084 17.553 72.7784 17.1923C73.4484 16.8315 74.2008 16.6511 75.0357 16.6511C75.8809 16.6511 76.6385 16.8315 77.3084 17.1923C77.9784 17.553 78.4989 18.0529 78.87 18.692C79.2513 19.331 79.442 20.0577 79.442 20.8719C79.442 21.6862 79.2513 22.418 78.87 23.0674C78.4989 23.7064 77.9784 24.2063 77.3084 24.5671C76.6385 24.9278 75.8809 25.1082 75.0357 25.1082ZM75.0357 23.4539C75.7469 23.4539 76.3344 23.2168 76.7982 22.7427C77.262 22.2686 77.494 21.645 77.494 20.8719C77.494 20.0989 77.262 19.4753 76.7982 19.0012C76.3344 18.5271 75.7469 18.29 75.0357 18.29C74.3245 18.29 73.737 18.5271 73.2731 19.0012C72.8196 19.4753 72.5929 20.0989 72.5929 20.8719C72.5929 21.645 72.8196 22.2686 73.2731 22.7427C73.737 23.2168 74.3245 23.4539 75.0357 23.4539ZM89.2833 16.7439V25H87.4435V23.9487C87.1343 24.3197 86.7478 24.6083 86.2839 24.8145C85.8201 25.0103 85.3202 25.1082 84.7842 25.1082C83.6814 25.1082 82.8104 24.8042 82.1713 24.196C81.5426 23.5776 81.2282 22.6654 81.2282 21.4595V16.7439H83.1608V21.1966C83.1608 21.9387 83.3258 22.4953 83.6556 22.8664C83.9957 23.2272 84.475 23.4075 85.0935 23.4075C85.784 23.4075 86.3303 23.1962 86.7323 22.7736C87.1446 22.3407 87.3507 21.7223 87.3507 20.9183V16.7439H89.2833ZM93.0472 15.8781H89.4603V14.1774H98.6441V15.8781H95.0571V25H93.0472V15.8781ZM107.764 16.7439V25H105.924V23.9487C105.615 24.3197 105.228 24.6083 104.765 24.8145C104.301 25.0103 103.801 25.1082 103.265 25.1082C102.162 25.1082 101.291 24.8042 100.652 24.196C100.023 23.5776 99.7088 22.6654 99.7088 21.4595V16.7439H101.641V21.1966C101.641 21.9387 101.806 22.4953 102.136 22.8664C102.476 23.2272 102.956 23.4075 103.574 23.4075C104.265 23.4075 104.811 23.1962 105.213 22.7736C105.625 22.3407 105.831 21.7223 105.831 20.9183V16.7439H107.764ZM114.871 16.6511C115.675 16.6511 116.391 16.8264 117.02 17.1768C117.659 17.5272 118.159 18.022 118.519 18.661C118.88 19.3001 119.061 20.0371 119.061 20.8719C119.061 21.7068 118.88 22.449 118.519 23.0983C118.159 23.7374 117.659 24.2321 117.02 24.5826C116.391 24.933 115.675 25.1082 114.871 25.1082C114.304 25.1082 113.783 25.0103 113.309 24.8145C112.845 24.6186 112.454 24.3249 112.134 23.9332V25H110.294V13.528H112.227V17.7489C112.557 17.3881 112.943 17.115 113.386 16.9294C113.84 16.7439 114.335 16.6511 114.871 16.6511ZM114.654 23.4539C115.365 23.4539 115.948 23.2168 116.401 22.7427C116.865 22.2686 117.097 21.645 117.097 20.8719C117.097 20.0989 116.865 19.4753 116.401 19.0012C115.948 18.5271 115.365 18.29 114.654 18.29C114.19 18.29 113.773 18.3982 113.402 18.6147C113.031 18.8208 112.737 19.1197 112.521 19.5114C112.304 19.9031 112.196 20.3566 112.196 20.8719C112.196 21.3873 112.304 21.8408 112.521 22.2325C112.737 22.6242 113.031 22.9282 113.402 23.1447C113.773 23.3508 114.19 23.4539 114.654 23.4539ZM128.655 20.9183C128.655 21.0523 128.644 21.243 128.624 21.4904H122.146C122.259 22.0985 122.553 22.583 123.027 22.9437C123.511 23.2942 124.109 23.4694 124.82 23.4694C125.728 23.4694 126.475 23.1705 127.062 22.5726L128.098 23.7631C127.727 24.2063 127.258 24.5413 126.691 24.7681C126.124 24.9948 125.485 25.1082 124.774 25.1082C123.867 25.1082 123.068 24.9278 122.378 24.5671C121.687 24.2063 121.151 23.7064 120.77 23.0674C120.399 22.418 120.213 21.6862 120.213 20.8719C120.213 20.068 120.394 19.3465 120.754 18.7074C121.125 18.0581 121.636 17.553 122.285 17.1923C122.934 16.8315 123.666 16.6511 124.48 16.6511C125.284 16.6511 126.001 16.8315 126.629 17.1923C127.268 17.5427 127.763 18.0426 128.114 18.692C128.474 19.331 128.655 20.0731 128.655 20.9183ZM124.48 18.1972C123.862 18.1972 123.336 18.3828 122.903 18.7538C122.481 19.1146 122.223 19.599 122.13 20.2071H126.815C126.732 19.6093 126.48 19.1249 126.057 18.7538C125.635 18.3828 125.109 18.1972 124.48 18.1972Z" fill="white"/>
<path d="M39.8566 12.574C39.584 11.5116 38.7808 10.6749 37.761 10.391C35.9124 9.875 28.5001 9.875 28.5001 9.875C28.5001 9.875 21.0877 9.875 19.2392 10.391C18.2193 10.675 17.4161 11.5116 17.1435 12.574C16.6482 14.4997 16.6482 18.5174 16.6482 18.5174C16.6482 18.5174 16.6482 22.5352 17.1435 24.4608C17.4161 25.5232 18.2193 26.3251 19.2392 26.609C21.0877 27.125 28.5001 27.125 28.5001 27.125C28.5001 27.125 35.9124 27.125 37.761 26.609C38.7808 26.3251 39.584 25.5232 39.8566 24.4608C40.3519 22.5352 40.3519 18.5174 40.3519 18.5174C40.3519 18.5174 40.3519 14.4997 39.8566 12.574ZM26.0758 22.1652V14.8696L32.2711 18.5175L26.0758 22.1652Z" fill="white"/>
</svg>
